<svg width="250" height="270" viewBox="0 0 250 270" fill="none" xmlns="http://www.w3.org/2000/svg">
<g clip-path="url(#clip0_2_3)">
<path d="M222.109 205.478L222.104 205.599L227.974 270H185.144L179.592 230.447L177.149 268.986L133.166 268.479L137.838 217.881L141.811 194.428V194.423L142.407 190.894H220.941L221.044 192.172L222.109 205.478Z" fill="#2F2E41"/>
<path d="M108.923 242.811C113.459 243.668 118.188 238.368 119.487 230.971C120.056 227.734 119.872 224.631 119.106 222.094L119.801 217.831L131.473 160.474C131.473 160.474 152.966 115.862 152.966 108.118C152.965 100.373 146.748 96.5748 146.748 96.5748L138.336 96.6564L111.954 163.515L107.203 212.92L106.434 219.699C104.855 221.793 103.629 224.628 103.061 227.866C101.762 235.262 104.387 241.953 108.923 242.811Z" fill="#FFB6B6"/>
<path d="M194.498 68.9383L186.679 50.1759L161.266 54.7397L159.556 76.8142L194.498 68.9383Z" fill="#FFB6B6"/>
<path opacity="0.1" d="M194.498 68.9383L186.679 50.1759L161.266 54.7397L159.556 76.8142L194.498 68.9383Z" fill="black"/>
<path d="M249.721 107.984C249.721 107.984 231.639 72.995 228.218 69.4454C226.695 67.8651 224.301 67.8432 222.113 68.3037L196.941 59.3035L188.41 54.3294L187.847 63.7927L159.837 69.0094C159.993 63.2383 160.778 61.0431 160.778 61.0431L150.515 73.5021L130.478 83.6439L130.489 83.7352C129.019 84.2678 127.625 85.1791 126.569 86.6865C122.659 92.2645 111.908 160.215 111.908 160.215L134.877 165.286L138.002 144.931L140.252 163.257L141.963 197.486C141.963 197.486 173.239 225.376 188.389 215.234C203.539 205.092 222.109 205.599 222.109 205.599L222.573 189.734C222.902 189.187 223.087 188.865 223.087 188.865L222.598 132.586V117.611C226.321 122.993 230.814 127.621 236.037 129.789C253.142 136.889 249.721 107.984 249.721 107.984V107.984Z" fill="#E6E6E6"/>
<path d="M171.316 58.0409C184.228 58.0409 194.695 47.18 194.695 33.7824C194.695 20.3848 184.228 9.5239 171.316 9.5239C158.405 9.5239 147.938 20.3848 147.938 33.7824C147.938 47.18 158.405 58.0409 171.316 58.0409Z" fill="#FFB6B6"/>
<path d="M188.088 40.638C188.088 40.638 190.121 33.255 194.695 33.7824C199.269 34.3097 200.285 30.0909 199.269 27.9814C198.252 25.872 196.219 15.3248 196.219 15.3248C196.219 15.3248 197.236 7.94181 191.137 6.8871C185.038 5.83238 183.005 4.77767 181.989 2.66823C180.973 0.558796 165.726 -1.55064 160.643 1.61352C155.561 4.77767 151.495 10.8485 147.938 12.5593C144.38 14.2701 141.331 17.4343 143.364 22.7079C145.396 27.9814 148.345 38.2954 148.345 38.2954C148.345 38.2954 153.528 36.4192 154.545 39.5833C155.561 42.7475 151.495 38.5286 156.578 30.0909C161.66 21.6531 161.66 13.2154 169.791 16.3795C177.923 19.5437 187.071 18.489 186.055 24.8173C185.038 31.1456 188.088 40.638 188.088 40.638V40.638Z" fill="#2F2E41"/>
<path d="M186.658 232.95H9.10603C4.08487 232.95 0 228.711 0 223.501V125.636C0 120.426 4.08487 116.187 9.10603 116.187H186.658C191.679 116.187 195.764 120.426 195.764 125.636V223.501C195.764 228.711 191.679 232.95 186.658 232.95Z" fill="white"/>
<path d="M186.658 232.95H9.10603C4.08487 232.95 0 228.711 0 223.501V125.636C0 120.426 4.08487 116.187 9.10603 116.187H186.658C191.679 116.187 195.764 120.426 195.764 125.636V223.501C195.764 228.711 191.679 232.95 186.658 232.95ZM9.10603 117.765C4.92352 117.765 1.52064 121.296 1.52064 125.636V223.501C1.52064 227.841 4.92352 231.372 9.10603 231.372H186.658C190.841 231.372 194.244 227.841 194.244 223.501V125.636C194.244 121.296 190.841 117.765 186.658 117.765H9.10603Z" fill="#3F3D56"/>
<path d="M172.955 128.021C174.214 128.021 175.236 126.962 175.236 125.654C175.236 124.347 174.214 123.288 172.955 123.288C171.695 123.288 170.674 124.347 170.674 125.654C170.674 126.962 171.695 128.021 172.955 128.021Z" fill="#3F3D56"/>
<path d="M179.037 128.021C180.297 128.021 181.318 126.962 181.318 125.654C181.318 124.347 180.297 123.288 179.037 123.288C177.777 123.288 176.756 124.347 176.756 125.654C176.756 126.962 177.777 128.021 179.037 128.021Z" fill="#3F3D56"/>
<path d="M185.12 128.021C186.379 128.021 187.401 126.962 187.401 125.654C187.401 124.347 186.379 123.288 185.12 123.288C183.86 123.288 182.839 124.347 182.839 125.654C182.839 126.962 183.86 128.021 185.12 128.021Z" fill="#3F3D56"/>
<path d="M12.9255 163.918C12.2966 163.918 11.785 164.449 11.785 165.101C11.785 165.419 11.9034 165.714 12.1184 165.931C12.3352 166.161 12.6192 166.285 12.9255 166.285H183.599C184.228 166.285 184.74 165.754 184.74 165.101C184.74 164.783 184.621 164.489 184.406 164.271C184.189 164.041 183.905 163.918 183.599 163.918H12.9255Z" fill="#E6E6E6"/>
<path d="M162.31 163.523V166.679H12.9255C12.5073 166.679 12.1271 166.506 11.8534 166.214C11.5721 165.93 11.4048 165.535 11.4048 165.101C11.4048 164.233 12.0891 163.523 12.9255 163.523H162.31Z" fill="#6C63FF"/>
<path d="M181.698 157.606H166.492C164.815 157.606 163.451 156.191 163.451 154.451C163.451 152.71 164.815 151.295 166.492 151.295H181.698C183.375 151.295 184.74 152.71 184.74 154.451C184.74 156.191 183.375 157.606 181.698 157.606Z" fill="#E6E6E6"/>
<path d="M82.0963 141.039H14.0659C12.389 141.039 11.0247 139.623 11.0247 137.883C11.0247 136.143 12.389 134.727 14.0659 134.727H82.0963C83.7732 134.727 85.1376 136.143 85.1376 137.883C85.1376 139.623 83.7732 141.039 82.0963 141.039Z" fill="#E6E6E6"/>
<path d="M12.9255 199.42C12.2966 199.42 11.785 199.951 11.785 200.603C11.785 200.922 11.9034 201.216 12.1184 201.433C12.3352 201.664 12.6192 201.787 12.9255 201.787H183.599C184.228 201.787 184.74 201.256 184.74 200.603C184.74 200.285 184.621 199.991 184.406 199.774C184.189 199.543 183.905 199.42 183.599 199.42H12.9255Z" fill="#E6E6E6"/>
<path d="M103.765 199.025V202.181H12.9255C12.5073 202.181 12.1271 202.008 11.8534 201.716C11.5721 201.432 11.4048 201.037 11.4048 200.603C11.4048 199.736 12.0891 199.025 12.9255 199.025H103.765Z" fill="#6C63FF"/>
<path d="M181.698 193.108H166.492C164.815 193.108 163.451 191.693 163.451 189.953C163.451 188.212 164.815 186.797 166.492 186.797H181.698C183.375 186.797 184.74 188.212 184.74 189.953C184.74 191.693 183.375 193.108 181.698 193.108Z" fill="#E6E6E6"/>
<path d="M208.319 59.9081C221.471 59.9081 232.132 49.0787 232.132 35.72C232.132 22.3612 221.471 11.5318 208.319 11.5318C195.168 11.5318 184.507 22.3612 184.507 35.72C184.507 49.0787 195.168 59.9081 208.319 59.9081Z" fill="#6C63FF"/>
<path d="M216.401 23.5193C213.231 29.5091 210.061 35.499 206.891 41.4889C204.87 37.7846 202.861 34.0738 200.835 30.3724C200.136 29.094 198.233 30.2438 198.934 31.5253C201.282 35.8161 203.606 40.1211 205.954 44.4118C206.355 45.1455 207.458 45.1625 207.855 44.4118C211.337 37.832 214.82 31.2521 218.302 24.6723C218.985 23.3829 217.084 22.229 216.401 23.5193Z" fill="white"/>
<path d="M241.192 99.477L217.467 87.7007C217.467 87.7007 216.514 79.8186 212.064 77.0072C211.308 75.1347 210.438 73.0777 209.647 71.4478C207.693 67.417 210.625 59.8106 208.181 59.8106C205.738 59.8106 202.126 67.8102 202.317 69.9525C202.464 71.5969 203.773 74.468 204.044 76.9812C201.064 78.1472 198.661 80.1459 197.08 81.7372C195.713 83.1144 195.204 85.169 195.739 87.0671C197.288 92.5676 201.159 103.928 206.715 103.928C214.046 103.928 216 102.406 216 102.406C216 102.406 231.15 122.183 242.39 123.704C253.63 125.225 241.192 99.477 241.192 99.477V99.477Z" fill="#FFB6B6"/>
</g>
<defs>
<clipPath id="clip0_2_3">
<rect width="250" height="270" fill="white"/>
</clipPath>
</defs>
</svg>
