<svg width="100" height="100" viewBox="0 0 100 100" fill="none" xmlns="http://www.w3.org/2000/svg">
<circle cx="50" cy="50" r="50" fill="#6C63FF"/>
<path fill-rule="evenodd" clip-rule="evenodd" d="M40.5 46.5218C40.5 45.4503 41.3507 44.5816 42.4 44.5816H42.419C43.4683 44.5816 44.319 45.4503 44.319 46.5218C44.319 47.5934 43.4683 48.4621 42.419 48.4621H42.4C41.3507 48.4621 40.5 47.5934 40.5 46.5218ZM48.1 46.5218C48.1 45.4503 48.9506 44.5816 50 44.5816H50.019C51.0684 44.5816 51.919 45.4503 51.919 46.5218C51.919 47.5934 51.0684 48.4621 50.019 48.4621H50C48.9506 48.4621 48.1 47.5934 48.1 46.5218ZM57.6 44.5816C56.5506 44.5816 55.7 45.4503 55.7 46.5218C55.7 47.5934 56.5506 48.4621 57.6 48.4621H57.619C58.6684 48.4621 59.519 47.5934 59.519 46.5218C59.519 45.4503 58.6684 44.5816 57.619 44.5816H57.6ZM40.3749 31C40.4165 31 40.4582 31 40.5 31H59.625C61.3094 30.9999 62.7606 30.9998 63.9228 31.1594C65.1683 31.3304 66.3622 31.716 67.3305 32.7048C68.2989 33.6937 68.6764 34.9129 68.844 36.1847C69.0002 37.3715 69.0002 38.8535 69 40.5735V52.4702C69.0002 54.1902 69.0002 55.6721 68.844 56.859C68.6764 58.1308 68.2989 59.35 67.3305 60.3388C66.3622 61.3277 65.1683 61.7132 63.9228 61.8844C62.7606 62.0438 61.3094 62.0438 59.625 62.0437H53.8C53.5842 62.0437 53.3738 62.1135 53.1992 62.2431L44.8238 68.4633C43.0243 69.7997 40.5 68.4871 40.5 66.2149V62.0437C39.0295 62.0437 37.5382 62.085 36.0772 61.8844C34.8317 61.7132 33.6379 61.3277 32.6695 60.3388C31.7011 59.35 31.3235 58.1308 31.1561 56.859C30.9998 55.6721 30.9999 54.1902 31 52.4702V40.7011C31 40.6584 31 40.6159 31 40.5734C30.9999 38.8534 30.9998 37.3715 31.1561 36.1847C31.3235 34.9129 31.7011 33.6937 32.6695 32.7048C33.6379 31.716 34.8317 31.3304 36.0772 31.1594C37.2394 30.9998 38.6906 30.9999 40.3749 31Z" fill="white"/>
</svg>
